{
    "asset" : {
        "generator" : "Khronos glTF Blender I/O v1.3.48",
        "version" : "2.0"
    },
    "extensionsUsed" : [
        "MOZ_lightmap"
    ],
    "scene" : 0,
    "scenes" : [
        {
            "name" : "Scene",
            "nodes" : [
                0
            ]
        }
    ],
    "nodes" : [
        {
            "mesh" : 0,
            "name" : "Cube"
        }
    ],
    "materials" : [
        {
            "alphaMode" : "BLEND",
            "emissiveFactor" : [
                0,
                0,
                0
            ],
            "extensions" : {
                "MOZ_lightmap" : {
                    "intensity" : 10,
                    "index" : 0,
                    "texCoord" : 0
                }
            },
            "name" : "Wall",
            "normalTexture" : {
                "index" : 1,
                "scale" : 0.10000000149011612,
                "texCoord" : 0
            },
            "pbrMetallicRoughness" : {
                "baseColorTexture" : {
                    "index" : 2,
                    "texCoord" : 0
                },
                "metallicFactor" : 0,
                "roughnessFactor" : 0.5
            }
        },
        {
            "doubleSided" : true,
            "emissiveFactor" : [
                0,
                0,
                0
            ],
            "extensions" : {
                "MOZ_lightmap" : {
                    "intensity" : 10,
                    "index" : 3,
                    "texCoord" : 0
                }
            },
            "name" : "Floor",
            "normalTexture" : {
                "index" : 4,
                "texCoord" : 0
            },
            "pbrMetallicRoughness" : {
                "baseColorTexture" : {
                    "index" : 5,
                    "texCoord" : 0
                },
                "metallicFactor" : 0,
                "roughnessFactor" : 0.1859903335571289
            }
        }
    ],
    "meshes" : [
        {
            "name" : "Cube",
            "primitives" : [
                {
                    "attributes" : {
                        "POSITION" : 0,
                        "NORMAL" : 1,
                        "TEXCOORD_0" : 2,
                        "TEXCOORD_1" : 3,
                        "COLOR_0" : 4
                    },
                    "indices" : 5,
                    "material" : 0
                },
                {
                    "attributes" : {
                        "POSITION" : 6,
                        "NORMAL" : 7,
                        "TEXCOORD_0" : 8,
                        "TEXCOORD_1" : 9,
                        "COLOR_0" : 10
                    },
                    "indices" : 11,
                    "material" : 1
                }
            ]
        }
    ],
    "textures" : [
        {
            "source" : 0
        },
        {
            "source" : 1
        },
        {
            "source" : 2
        },
        {
            "source" : 0
        },
        {
            "source" : 3
        },
        {
            "source" : 4
        }
    ],
    "images" : [
        {
            "mimeType" : "image/png",
            "name" : "Cube_filtered",
            "uri" : "Textures/Cube_filtered.png"
        },
        {
            "mimeType" : "image/png",
            "name" : "TexturesCom_Plaster_Plain_1K_normal",
            "uri" : "Textures/TexturesCom_Plaster_Plain_1K_normal.png"
        },
        {
            "mimeType" : "image/png",
            "name" : "TexturesCom_Plaster_Plain_1K_albedo",
            "uri" : "Textures/TexturesCom_Plaster_Plain_1K_albedo.png"
        },
        {
            "mimeType" : "image/png",
            "name" : "TexturesCom_Wood_ParquetStrip3_1K_normal",
            "uri" : "Textures/TexturesCom_Wood_ParquetStrip3_1K_normal.png"
        },
        {
            "mimeType" : "image/png",
            "name" : "TexturesCom_Wood_ParquetStrip3_1K_albedo.tif",
            "uri" : "Textures/TexturesCom_Wood_ParquetStrip3_1K_albedo_tif.png"
        }
    ],
    "accessors" : [
        {
            "bufferView" : 0,
            "componentType" : 5126,
            "count" : 228,
            "max" : [
                4,
                3.000000238418579,
                3.000000238418579
            ],
            "min" : [
                -3,
                0,
                -3.0617263317108154
            ],
            "type" : "VEC3"
        },
        {
            "bufferView" : 1,
            "componentType" : 5126,
            "count" : 228,
            "type" : "VEC3"
        },
        {
            "bufferView" : 2,
            "componentType" : 5126,
            "count" : 228,
            "type" : "VEC2"
        },
        {
            "bufferView" : 3,
            "componentType" : 5126,
            "count" : 228,
            "type" : "VEC2"
        },
        {
            "bufferView" : 4,
            "componentType" : 5126,
            "count" : 228,
            "type" : "VEC4"
        },
        {
            "bufferView" : 5,
            "componentType" : 5123,
            "count" : 363,
            "type" : "SCALAR"
        },
        {
            "bufferView" : 6,
            "componentType" : 5126,
            "count" : 8,
            "max" : [
                4,
                0,
                3
            ],
            "min" : [
                -3,
                0,
                -3
            ],
            "type" : "VEC3"
        },
        {
            "bufferView" : 7,
            "componentType" : 5126,
            "count" : 8,
            "type" : "VEC3"
        },
        {
            "bufferView" : 8,
            "componentType" : 5126,
            "count" : 8,
            "type" : "VEC2"
        },
        {
            "bufferView" : 9,
            "componentType" : 5126,
            "count" : 8,
            "type" : "VEC2"
        },
        {
            "bufferView" : 10,
            "componentType" : 5126,
            "count" : 8,
            "type" : "VEC4"
        },
        {
            "bufferView" : 11,
            "componentType" : 5123,
            "count" : 18,
            "type" : "SCALAR"
        }
    ],
    "bufferViews" : [
        {
            "buffer" : 0,
            "byteLength" : 2736,
            "byteOffset" : 0
        },
        {
            "buffer" : 0,
            "byteLength" : 2736,
            "byteOffset" : 2736
        },
        {
            "buffer" : 0,
            "byteLength" : 1824,
            "byteOffset" : 5472
        },
        {
            "buffer" : 0,
            "byteLength" : 1824,
            "byteOffset" : 7296
        },
        {
            "buffer" : 0,
            "byteLength" : 3648,
            "byteOffset" : 9120
        },
        {
            "buffer" : 0,
            "byteLength" : 726,
            "byteOffset" : 12768
        },
        {
            "buffer" : 0,
            "byteLength" : 96,
            "byteOffset" : 13496
        },
        {
            "buffer" : 0,
            "byteLength" : 96,
            "byteOffset" : 13592
        },
        {
            "buffer" : 0,
            "byteLength" : 64,
            "byteOffset" : 13688
        },
        {
            "buffer" : 0,
            "byteLength" : 64,
            "byteOffset" : 13752
        },
        {
            "buffer" : 0,
            "byteLength" : 128,
            "byteOffset" : 13816
        },
        {
            "buffer" : 0,
            "byteLength" : 36,
            "byteOffset" : 13944
        }
    ],
    "buffers" : [
        {
            "byteLength" : 13980,
            "uri" : "Example.bin"
        }
    ]
}
