<?xml version="1.0" encoding="utf-8"?>
<!-- Generator: Adobe Illustrator 26.5.0, SVG Export Plug-In . SVG Version: 6.00 Build 0)  -->
<svg version="1.1" id="Layer_1" xmlns="http://www.w3.org/2000/svg" xmlns:xlink="http://www.w3.org/1999/xlink" x="0px" y="0px"
	 viewBox="0 0 256 256" style="enable-background:new 0 0 256 256;" xml:space="preserve">
<style type="text/css">
	.st0{fill:#FFFFFF;}
</style>
<g>
	<path class="st0" d="M181.2,114c1.5-5.5-4.4-6.8-8.7-5.8c-4.6,1.1-9,3.4-13.2,5.7c-4.1,2.3-8.1,5.1-11.6,8.2
		c-3.7,3.2-7.3,6.6-10.1,10.7c-2.6,3.8-4.6,8.3-6.1,12.6c-0.2,0.8-0.3,2.5-1.4,2.6c-0.7,0.1-1.6,0.2-2.3,0.1c-2-0.1-4.7,0.5-6.3-1.2
		c-3.1-3.1-1.8-9.1-0.4-12.7c1.8-4.5,3.9-8.9,6.7-12.9c2.8-3.9,6.2-7.2,9.5-10.6c1.8-1.8,3.6-3.5,5.5-5.2c1.7-1.5,3.4-1,5.5-0.9
		c9.6,0.6,19.5-2.6,27.9-7.3c3.5-2,8.6-5,8.5-9.6c-0.1-4.9-5.3-6-9.3-5.9c-2.3,0-4.9,0.2-7.1,0.8c-2.3,0.7-4.4,1.8-6.6,2.8
		c-2.4,1.1-4.4,2.6-6.7,3.9c-2,1.1-3.9,2.1-5.7,3.5c-2,1.5-4.2,2.9-6.1,4.5c-1.3,1.1-3.5,0.7-5.1,0.6c-4.7-0.3-9.4-1.8-13.9-3.1
		c-0.7-0.2-2.9-0.4-2.9-1.3c0.6-0.8,1.5-1.3,2.2-2c1.7-1.7,3.6-3.2,5.5-4.8c1.7-1.4,3-3.2,5.4-2.8c2.3,0.4,4.6,0.8,6.9,0.7
		c2.5-0.1,5.1-0.9,7.5-1.5c2-0.4,3.9-1.2,5.6-2.4c3.5-2.5,6.3-6.8,6.8-11.2c0.1-0.8,0.1-2.8,1-3.2c0.8-0.3,2.2,0,2.9,0.1
		c2,0.3,3.9,1,5.5,2.1c0.8,0.6,1.8,1.2,2.9,0.9c0.9-0.3,1.4-1,1.1-2c-0.6-1.9-2.4-3.4-4.3-4.2c-2.3-1-4.6-1.8-7-2.2
		c-0.9-0.2-1.7,0.1-2-0.9c-0.3-1.1-0.6-2.2-1.1-3.3c-1.8-3.9-5.5-7.3-9.4-9c-2.2-0.9-4.4-1.6-6.7-2.3c-2.4-0.7-4.8-0.8-7.3-1.2
		c-0.9-0.2-2-0.2-2.9-0.3c-1.3-0.1-1.9,0-1.9-1.4c0-0.9-0.1-5.4-1.7-5.3c-1.9,0.1-1.6,3.8-1.9,5.2c-0.3,1.3-0.4,1.6-1.8,1.8
		c-1.1,0.2-2.3,0.5-3.4,0.8c-4.7,1.1-9.5,2.7-13.9,4.5c-2.2,0.9-4.2,2.3-6.3,3.4c-1.9,1-3.6,2.1-5.3,3.5c-3.9,3-7.3,6-10.3,9.8
		c-1.5,2-3.2,3.9-4.4,6.1c-1,1.9-1.9,3.8-2.7,5.7c-1,2.3-1.9,4.7-1.4,7.3c0.4,1.9,1.4,3.6,2.8,4.9c3.5,3.2,8.9,1.1,12.6-0.5
		c4.4-1.9,8.9-4,12.8-6.9c7.4-5.6,13.3-12.9,18-20.8c2.3-3.8,4.2-7.7,5.5-12c0.6-2.1,4.1-1.1,5.7-1c2.3,0.2,4.5,0.7,6.6,1.4
		c4,1.4,8.8,2.4,11.6,6c0.5,0.6,3.3,4.6,1.9,5.1c-1.9,0.6-3.7,0.5-5.6,1.3c-4,1.7-8,3.9-11.4,6.7c-1.9,1.6-3.8,3.1-5.7,4.7
		c-0.9,0.8-1.7,1.6-2.5,2.4c-0.9,0.8-1.2,0.7-1.9-0.2c-1.2-1.4-2.9-4.1-5.1-3.4c-2.3,0.8-1.7,2.9-0.7,4.6c0.6,1,2.1,2.1,2.4,3.2
		c0.2,0.6-1.6,1.9-2,2.3c-1.7,1.7-3.7,3.3-5.5,4.9c-1.1,0.9-2.2,1.9-3.4,2.8c-0.7,0.6-1.5,1.5-2.4,1.6c-2,0.2-4.2-0.1-6.2-0.1
		c-4.8,0.1-9.4,1-13.9,2.8c-4.2,1.7-8.3,3.9-11.6,7c-0.7,0.6-1.6,2.3-2.6,2.4c-0.7,0.1-1.7-0.6-2.2-1c-1.4-1-3.7-3.2-2.7-5.1
		c1-2,1.8-3.7,0.2-5.7c-1.4-1.8-3.8-0.1-4.6,1.4c-1,1.8-1.3,4.6-0.7,6.5c0.5,1.9,2.1,3.6,3.6,4.8c1,0.9,2,1.7,3.1,2.6
		c0.8,0.6,0.7,1,0.4,2c-0.3,1.1-0.3,2.2-0.6,3.3c-0.3,1.1-0.6,2.1-0.7,3.2c-0.4,4.8,1.2,9.6,4,13.5c5.3,7.3,18.6,7.9,24.1,0.4
		c2.1-2.8,4.2-9,1.6-12.1c-2.5-2.9-9.9-1.7-8.6,3c0.3,0.9,0.9,1.9,2,2c1,0.1,1.7,0,2.1,1c0.7,1.6-2.2,3.7-3.2,4.3
		c-3.9,2.3-8.9,2.1-12.5-0.7c-3.5-2.7-4.9-7.2-4.7-11.4c0.1-1.6,0-4.8,1.6-5.9c0.7-0.5,2.2,0.2,2.9,0.4c1,0.2,1.9,0.3,2.9,0.4
		c9.2,0.9,18.3-3.5,25.1-9.5c1.1-0.9,3.9-4.4,5.4-3.7c1.9,0.8,4,1.3,5.9,1.8c2.3,0.6,4.7,1.2,7,1.9c0.8,0.2,5.3,0.8,5.6,1.7
		c0,0,0,0,0,0c0,0.1,0,0.1,0,0.1c-0.4,1-2,1.7-2.7,2.5c-0.9,1-1.9,2-2.9,3c-2.2,2.2-4.2,4.4-6,7c-3.3,4.6-6.4,9.6-8.5,14.9
		c-2,4.8-3.5,10.7-1.3,15.8c1.1,2.5,3.4,4.6,5.8,5.6c1.3,0.5,2.6,0.8,4,0.9c1.2,0.1,2.3-0.2,3.6-0.3c1-0.1,2-0.3,2,1
		c0,1-0.2,2-0.2,3c0,1.5,1,5,2.8,2.4c1.3-1.8,0.8-4.6,1.9-6.5c0.4-0.7,1.5-0.8,2.2-0.9c1-0.2,2.1-0.5,3.1-0.8
		c9.2-2.7,17.6-8.1,24.9-14.2C171.4,131.2,178.7,123.3,181.2,114z M154.4,96.5c1-0.8,2-1.7,3.2-2.4c2.2-1.4,4.4-2.7,6.7-3.9
		c2.4-1.3,4.9-2.3,7.6-2.9c1.7-0.4,5.2-1.3,6.5,0.5c2.7,3.9-8.6,7-10.7,7.6c-4.6,1.5-9.5,3.1-14.4,2.9c0,0,0,0,0,0
		C152.2,97.9,154,96.9,154.4,96.5z M126.8,51c-0.5,1.1-1.1,2.1-1.7,3.2c-4.7,8.4-11.4,15.9-18.9,21.9c-3.8,3-8,5.9-12.3,8.1
		c-1.7,0.9-4.7,2.1-6.6,1.6c-2.1-0.5-1.8-3.6-1.6-5.2c0.1-0.4,0.2-0.5,0.2-0.6c0.2-0.7,0.4-1.4,0.7-2.1c1.7-4.4,4.9-8.4,8.2-11.6
		c3.4-3.3,7-6.5,11.2-8.9c4.2-2.4,8.4-4.8,13-6.1c2.4-0.7,4.8-1.3,7.2-1.8C127.6,49.2,127.2,50.1,126.8,51z M138.8,77.4
		c0.8-0.7,1.7-1.5,2.6-2.2c1.9-1.5,4-3.1,6-4.4c2.1-1.3,4.3-2.1,6.5-3.1c0.7-0.4,2.3-0.9,3-0.4c0.7,0.4,0.3,1.4,0.1,2c0,0,0,0,0,0.1
		c-0.5,2.1-1.7,4.7-3.1,6.2c-1.5,1.6-3.8,2.4-5.8,3.1c-1.9,0.7-4.3,1.7-6.4,1.8c-0.8,0-5.4,0.2-5.3-1
		C136.5,78.9,138.3,77.8,138.8,77.4z M104.4,100.1c-2,1.3-4,2.6-6.2,3.7c-3.9,2-8.2,4.4-12.8,3.1c-0.9-0.2-1.9-0.4-0.9-1.4
		c0.6-0.6,1.3-1.1,2-1.6c1.9-1.5,4.2-2.9,6.4-3.8c4.6-2,9.3-3.2,14.4-3.3C109.8,96.7,105,99.7,104.4,100.1z M145.3,144.2
		c-2.1,0.8-4.3,2-6.6,2.3c-0.6,0.1-2.4,0.6-2.9-0.1c-0.3-0.5,0.2-1,0.4-1.3c0.4-0.5,0.2-0.9,0.4-1.5c0.5-2,2.1-3.8,3.3-5.5
		c1.4-1.9,2.6-3.8,4.2-5.6c3.1-3.6,6.6-6.9,10.3-9.9c3.6-2.9,7.6-5,11.7-6.9c1.9-0.9,10.8-5.2,9.5,0.1c-1.1,4.8-4.4,8.5-7.7,11.9
		c-3.3,3.5-6.6,6.7-10.6,9.5C153.6,139.8,149.6,142.6,145.3,144.2z"/>
	<path class="st0" d="M177.4,193.6c0.2-0.3,0.3-0.7,0.4-1.1c1.4-4.9,2.8-9.8,4.1-14.8c0.1-0.4,0.2-0.8,0.3-1.1
		c0.1-0.7-0.2-1.1-0.9-1.3c-0.7-0.2-1.4-0.2-2.1,0c-0.8,0.1-1.3,0.6-1.5,1.3c-0.1,0.3-0.2,0.5-0.2,0.8c-0.5,1.9-0.9,3.9-1.4,5.8
		c-0.1,0.3-0.2,0.7-0.3,1c-0.3,0.6-1.1,0.6-1.4,0c-0.1-0.3-0.2-0.6-0.3-0.9c-0.4-1.5-0.7-3.1-1-4.6c-0.2-0.7-0.3-1.4-0.5-2.1
		c-0.2-0.7-0.7-1.2-1.4-1.3c-0.8-0.1-1.6-0.1-2.4,0c-0.7,0.1-1.2,0.5-1.4,1.2c-0.1,0.3-0.2,0.6-0.2,0.9c-0.4,1.8-0.7,3.6-1.1,5.4
		c-0.1,0.3-0.2,0.6-0.3,0.9c-0.3,0.5-1,0.6-1.3,0c-0.2-0.3-0.3-0.5-0.3-0.8c-0.3-1.2-0.6-2.5-0.9-3.7c-0.2-0.9-0.5-1.9-0.7-2.8
		c-0.2-0.6-0.7-1-1.3-1.2c-0.8-0.2-1.6-0.2-2.4,0c-0.5,0.1-1,0.5-0.8,1.2c0,0.3,0.1,0.6,0.2,0.9c1.4,4.6,2.8,9.3,4.2,13.9
		c0.1,0.4,0.3,0.9,0.4,1.3c0.3,0.8,0.9,1.2,1.7,1.3c0.2,0,0.5,0,0.8,0c0,0,0,0,0,0c0.3,0,0.6,0,0.9,0c0.6,0,1-0.3,1.2-0.8
		c0.1-0.3,0.3-0.6,0.3-1c0.5-2.1,0.9-4.2,1.4-6.3c0.1-0.4,0.2-0.8,0.4-1.2c0.1-0.3,0.4-0.5,0.7-0.5c0.3,0,0.6,0.2,0.7,0.5
		c0.1,0.3,0.2,0.6,0.3,0.8c0.4,1.9,0.8,3.9,1.3,5.8c0.1,0.6,0.3,1.2,0.4,1.8c0.2,0.8,0.7,1.2,1.5,1.3c0.5,0.1,1.1,0.1,1.6,0.1
		C176.6,194.4,177.1,194.1,177.4,193.6z"/>
	<path class="st0" d="M229.2,197.3c-1.9-3.4-3.8-6.8-5.8-10.2c-0.2-0.3-0.3-0.6-0.5-0.9c-0.4-0.8-0.3-1.6,0.2-2.4
		c0.1-0.2,0.3-0.4,0.4-0.6c0.9-1.1,1.8-2.1,2.7-3.2c0.8-0.9,1.6-1.9,2.3-2.8c0.2-0.2,0.4-0.5,0.5-0.8c0.2-0.4,0-0.7-0.3-0.9
		c-0.1-0.1-0.2-0.1-0.4-0.1c-0.8-0.1-1.6-0.1-2.4-0.1c-1.1,0-2,0.5-2.6,1.4c-0.9,1.1-1.8,2.2-2.7,3.3c-0.4,0.4-0.7,0.9-1.1,1.3
		c-0.2,0.2-0.5,0.5-0.8,0.6c-0.5,0.2-0.9,0-1.1-0.4c-0.1-0.2-0.2-0.5-0.2-0.8c0-0.9,0-1.9-0.1-2.8c0-0.5,0-1-0.1-1.4
		c-0.1-0.6-0.4-0.9-1-1.1c-0.7-0.2-1.5-0.2-2.2,0c-0.7,0.2-1,0.6-1.1,1.3c0,0.4-0.1,0.7-0.1,1.1c0,1.3,0,2.6,0,3.9
		c0,1.6,0,3.2,0,4.7c0,0,0,0,0,0c0,2.9,0,5.8,0,8.7c0,0.4,0,0.7,0.1,1.1c0.1,0.6,0.3,1.2,1,1.4c0.6,0.3,1.3,0.4,2,0.3
		c0.8-0.1,1.2-0.5,1.3-1.2c0-0.2,0.1-0.5,0.1-0.7c0-0.6,0-1.2,0-1.9c0-0.9,0-1.9,0.1-2.8c0-0.4,0.2-0.8,0.4-1.1
		c0.3-0.4,0.7-0.5,1.2-0.5c0.3,0,0.6,0.2,0.7,0.4c0.3,0.4,0.6,0.8,0.9,1.2c1,1.8,2.1,3.7,3.1,5.5c0.2,0.4,0.5,0.8,0.7,1.1
		c0.4,0.5,0.9,0.9,1.5,1.1c0.6,0.1,1.2,0.2,1.8,0.3c0.3,0.1,0.7,0.1,1,0.1c0.8,0,1.2-0.5,0.9-1.3
		C229.6,197.9,229.4,197.6,229.2,197.3z"/>
	<path class="st0" d="M74.6,183.8c0.8-1.4,1.1-2.8,0.7-4.4c-0.5-2-1.7-3.4-3.8-3.9c-0.7-0.2-1.4-0.3-2.2-0.3c-2.5,0-5,0-7.6,0
		c-0.4,0-0.7,0.1-1.1,0.2c-0.6,0.1-0.9,0.6-1,1.1c-0.1,0.3-0.1,0.6-0.1,0.9c0,2.8,0,5.5-0.1,8.3c0,0,0,0-0.1,0c0,2.2,0,4.4,0,6.7
		c0,0.6,0,1.2,0,1.8c0,0.3,0.1,0.6,0.2,0.9c0.1,0.4,0.5,0.7,0.9,0.7c0.8,0.1,1.5,0,2.3-0.2c0.5-0.2,0.8-0.5,0.9-1
		c0.1-0.2,0.1-0.5,0.1-0.7c0-1.1,0-2.3,0.1-3.4c0-0.4,0-0.7,0-1.1c0.1-0.9,0.7-1.6,1.6-1.7c0.9-0.1,1.8-0.1,2.7-0.1
		c1,0,1.7,0.7,2,1.6c0.1,0.2,0.1,0.4,0.1,0.7c0,0.8,0,1.5,0.1,2.3c0,0.5,0.1,1.1,0.2,1.6c0.2,0.8,0.7,1.2,1.6,1.2
		c0.6,0,1.2,0,1.9-0.1c0.2,0,0.4-0.1,0.7-0.2c0.5-0.2,0.7-0.6,0.6-1.1c0-0.2-0.1-0.3-0.1-0.5c-0.2-0.6-0.2-1.1-0.3-1.7
		c0-0.8,0-1.6-0.1-2.3c0-0.8-0.2-1.5-0.6-2.2c-0.1-0.1-0.2-0.3-0.2-0.4c-0.3-0.7-0.3-1.3,0.1-2C74.3,184.2,74.4,184,74.6,183.8z
		 M68.9,183.6c-0.7,0.1-1.5,0.2-2.3,0.2c0,0,0,0,0-0.1c-0.4,0-0.7,0-1.1,0c-0.8,0-1.4-0.5-1.5-1.3c-0.1-0.7-0.1-1.4,0-2.1
		c0.2-0.8,0.7-1.3,1.5-1.4c1.1-0.2,2.2-0.2,3.3,0c1.1,0.1,2,1,2,2.3C70.9,182.5,70.1,183.4,68.9,183.6z"/>
	<path class="st0" d="M24.2,175.7c-0.8-0.2-1.7-0.3-2.5-0.3c-1.3,0-2.6,0-3.8,0c-0.8,0-1.5,0-2.3,0.1c-1,0-1.4,0.6-1.5,1.4
		c0,0.4-0.1,0.8-0.1,1.3c0,3.4,0,6.8,0,10.2c0,3.4,0,6.8,0,10.2c0,0.4,0,0.8,0.1,1.1c0.1,0.8,0.6,1.3,1.4,1.3c0.5,0,1.1-0.1,1.6-0.3
		c0.6-0.2,0.9-0.6,1-1.2c0-0.2,0.1-0.4,0.1-0.6c0-1.4,0-2.9,0-4.3c0-0.4,0-0.7,0.1-1.1c0.1-0.8,0.6-1.4,1.4-1.6
		c0.4-0.1,0.9-0.2,1.3-0.2c0.9-0.1,1.8-0.2,2.7-0.4c2.5-0.7,4.1-2.2,4.8-4.8c0.3-1.2,0.4-2.4,0.4-3.6c0-1.1-0.1-2.1-0.5-3.2
		C27.6,177.6,26.3,176.2,24.2,175.7z M24,184.5c-0.4,1.3-1.2,2-2.5,2.2c-0.5,0.1-1,0.1-1.6,0.1c-1,0-1.6-0.6-1.7-1.6
		c-0.1-0.6-0.1-1.1-0.1-1.7c0-0.6,0-1.1,0.1-1.6c0.1-1.2,0.7-1.8,1.8-1.9c0.6-0.1,1.2,0,1.8,0.1c1.3,0.2,2,1,2.2,2.3
		C24.2,183.1,24.2,183.8,24,184.5z"/>
	<path class="st0" d="M46.2,177.5c-0.1-0.4-0.3-0.7-0.4-1.1c-0.3-0.6-0.8-1-1.4-1.1c-0.4-0.1-0.9-0.1-1.3-0.1c0,0,0,0,0,0
		c-0.3,0-0.5,0-0.8,0c-1,0-1.8,0.5-2.1,1.5c-0.1,0.3-0.2,0.5-0.3,0.8c-1.8,6-3.6,12-5.4,18c-0.2,0.6-0.3,1.1-0.4,1.7
		c-0.1,0.7,0.3,1.2,1,1.2c0.4,0,0.8,0,1.2-0.1c1.4-0.1,2.2-0.9,2.5-2.2c0.1-0.4,0.3-0.9,0.4-1.3c0.4-1,1.1-1.5,2.1-1.6
		c1.1-0.1,2.2-0.2,3.3-0.3c1,0,1.8,0.2,2.3,1.5c0.1,0.2,0.1,0.4,0.2,0.6c0.1,0.3,0.3,0.6,0.4,0.9c0.2,0.4,0.6,0.7,1.1,0.8
		c0.9,0.2,1.8,0.1,2.7-0.3c0.6-0.2,0.8-0.6,0.7-1.2c-0.1-0.4-0.2-0.9-0.3-1.3C49.8,188.6,48,183.1,46.2,177.5z M42.8,188.8
		c-0.2,0-0.4-0.1-0.7-0.1c-0.5-0.1-0.8-0.5-0.8-1c0-0.3,0-0.7,0-1c0.1-0.6,0.3-1.2,0.5-1.8c0.1-0.3,0.3-0.5,0.5-0.7
		c0.3-0.4,0.8-0.4,1.1,0c0.1,0.1,0.2,0.3,0.3,0.5c0.3,0.7,0.6,1.4,0.7,2.2C44.7,188.1,44.1,188.8,42.8,188.8z"/>
	<path class="st0" d="M203.2,185.8c-0.6-0.5-1.3-0.9-2-1.2c-1.2-0.4-2.4-0.8-3.6-1.2c-0.9-0.3-1.7-0.5-2.6-0.8
		c-0.4-0.1-0.8-0.4-1.1-0.7c-0.7-0.7-0.7-1.8,0-2.5c0.3-0.2,0.6-0.4,0.9-0.6c0.6-0.3,1.2-0.3,1.8-0.2c1.3,0.1,2.4,0.6,3.1,1.8
		c0.1,0.2,0.2,0.4,0.4,0.6c0.3,0.4,0.7,0.7,1.2,0.8c0.6,0.1,1.1,0.1,1.7,0.1c0.9-0.1,1.3-0.6,1.2-1.5c-0.5-2.5-1.9-4.2-4.3-5
		c-1.1-0.4-2.3-0.5-3.5-0.4c-1,0-1.9,0.1-2.9,0.3c-1.1,0.2-2.1,0.7-2.9,1.4c-1.3,1.3-1.9,2.8-1.8,4.6c0.1,2.2,1,3.8,3,4.8
		c1.1,0.6,2.2,0.9,3.3,1.3c1.1,0.4,2.3,0.7,3.4,1.1c0.5,0.2,0.9,0.4,1.2,0.8c1,0.9,0.8,2.3-0.3,3c-0.2,0.2-0.5,0.3-0.8,0.3
		c-1,0.2-1.9,0.2-2.9-0.1c-1.2-0.3-2-0.9-2.6-2c-0.1-0.2-0.2-0.4-0.3-0.6c-0.3-0.4-0.7-0.8-1.2-0.8c-0.6-0.1-1.2-0.2-1.8-0.2
		c-0.9,0-1.4,0.7-1.2,1.5c0.3,1.3,0.9,2.5,1.8,3.5c0.9,0.9,2,1.6,3.3,2c2,0.7,4.2,1,6.3,0.6c1.8-0.4,3.2-1.3,4.1-3
		c0.7-1.3,0.9-2.7,0.7-4.2C204.8,187.9,204.3,186.7,203.2,185.8z"/>
	<path class="st0" d="M125.6,181.9c-0.2-1.1-0.4-2.1-1-3.1c-1-1.8-2.5-3-4.6-3.4c-1.2-0.2-2.4-0.3-3.6-0.3c-1.6,0-3.2,0-4.8,0
		c-0.5,0-1,0-1.5,0.1c-0.8,0.1-1.2,0.6-1.3,1.4c0,0.5-0.1,0.9-0.1,1.4c0,2.1,0,4.3,0,6.4c0,2.3,0,4.6,0,7c0,0.1,0,0.3,0,0.4
		c0,0.7,0.5,1.3,1.3,1.3c0.2,0,0.3,0,0.5,0c1.1,0,2.3,0,3.4-0.1c1.5,0,3-0.1,4.5-0.2c1.4-0.1,2.6-0.6,3.7-1.4c1.4-1,2.2-2.3,2.8-3.9
		C125.7,185.8,125.9,183.9,125.6,181.9z M120.7,186.7c-0.5,1.2-1.3,2.1-2.6,2.6c-0.3,0.1-0.7,0.2-1.1,0.2c-0.7,0-1.4,0-2.2,0
		c-0.8,0-1.5-0.7-1.6-1.4c0-0.2-0.1-0.5-0.1-0.8c0-1.1,0-2.2,0-3.4c0,0,0,0,0.1,0c0-1.1,0-2.2,0-3.4c0-0.1,0-0.2,0-0.3
		c0-1,0.6-1.7,1.6-1.8c1.1-0.1,2.2-0.1,3.3,0.1c1.1,0.2,1.9,0.9,2.3,1.9c0.4,0.8,0.5,1.6,0.5,2.4
		C121.2,184.2,121.1,185.5,120.7,186.7z"/>
	<path class="st0" d="M150.7,178.9c-1-1.9-2.5-3.2-4.6-3.8c-0.9-0.2-1.8-0.3-2.8-0.4c-1.3-0.1-2.5,0-3.8,0.2
		c-1.3,0.2-2.4,0.6-3.4,1.4c-1.3,1-2.3,2.4-2.7,4c-0.8,2.5-0.8,4.9,0.1,7.3c0.8,2.4,2.4,4.2,4.8,5.2c1.4,0.6,2.9,0.8,4.4,0.8
		c0.8-0.1,1.6-0.1,2.4-0.3c3.2-0.6,5.3-2.5,6.3-5.6c0.6-1.8,0.6-3.6,0.4-5.4C151.6,181.1,151.3,180,150.7,178.9z M147,186.7
		c-0.6,1.7-1.7,2.9-3.5,3.1c-3.2,0.5-5.2-1.4-5.8-3.8c-0.4-1.5-0.4-3.1,0.1-4.6c0.2-0.6,0.4-1.1,0.8-1.5c0.8-1.1,1.8-1.7,3.2-1.9
		c1.5-0.2,2.9,0.1,4,1.2c0.8,0.8,1.3,1.7,1.5,2.8c0.1,0.7,0.2,1.3,0.2,2C147.4,185,147.3,185.9,147,186.7z"/>
	<path class="st0" d="M101.1,191.7c-1.8-4.8-3.7-9.6-5.5-14.5c-0.1-0.3-0.3-0.7-0.4-1c-0.3-0.6-0.8-0.9-1.4-1.1
		c-0.9-0.2-1.9-0.2-2.8,0c-0.7,0.1-1.2,0.5-1.5,1.1c-0.2,0.3-0.3,0.7-0.5,1c-1.6,4.1-3.1,8.3-4.7,12.4c-0.4,1-0.7,1.9-1.1,2.9
		c-0.3,1,0.3,1.4,1,1.5c0,0,0.1,0,0.1,0c0.5,0,1.1,0,1.6-0.1c0.9-0.1,1.5-0.5,1.8-1.3c0.1-0.2,0.2-0.5,0.3-0.7
		c0.1-0.3,0.2-0.5,0.3-0.8c0.3-0.6,0.8-1,1.5-1.1c0.3-0.1,0.7-0.1,1-0.1c0.5,0,1,0,1.5,0c0,0,0-0.1,0-0.1c0.6,0,1.1,0,1.7,0
		c0.5,0,1,0.2,1.4,0.6c0.3,0.3,0.5,0.7,0.6,1c0.1,0.3,0.3,0.7,0.4,1c0.3,0.5,0.8,0.9,1.4,0.9c0.8,0,1.5,0,2.3-0.1
		c0.6,0,1.2-0.6,0.9-1.4C101.2,191.9,101.2,191.8,101.1,191.7z M92.2,186.4c-0.2,0-0.3,0-0.5-0.1c-0.7-0.2-1.1-0.8-1-1.5
		c0.2-0.7,0.5-1.3,0.7-2c0-0.1,0.1-0.2,0.2-0.3c0.4-0.4,0.9-0.4,1.3,0c0.2,0.2,0.3,0.4,0.4,0.6c0.2,0.4,0.3,0.8,0.4,1.2
		C94.1,185.5,93.5,186.3,92.2,186.4z"/>
	<path class="st0" d="M241.5,177.3c0-0.3-0.1-0.6-0.2-0.9c-0.2-0.5-0.6-0.9-1.2-0.9c-0.4,0-0.9,0-1.3,0c-0.9,0.1-1.3,0.6-1.4,1.4
		c0,0.3-0.1,0.7-0.1,1c0,6.7,0,13.3,0,20c0,0.5,0,1,0.1,1.5c0.1,0.7,0.4,1.2,1.1,1.4c0.4,0.1,0.9,0.2,1.4,0.2c0.9,0,1.5-0.5,1.6-1.5
		c0-0.3,0-0.7,0-1c0-3.4,0-6.8,0-10.1c0-3.3,0-6.6,0-10C241.5,178,241.5,177.6,241.5,177.3z"/>
</g>
</svg>
